{
   "asset": {
    "version": "2.0",
    "generator": "THREE.GLTFExporter"
  },
   "bufferViews" : [
      {
         "buffer" : 0,
         "byteLength" : 5316,
         "byteOffset" : 0,
         "byteStride" : 0,
         "name" : "buffer-0-bufferview-ushort",
         "target" : 34963
      },
      {
         "buffer" : 0,
         "byteLength" : 21264,
         "byteOffset" : 5320,
         "byteStride" : 8,
         "name" : "buffer-0-bufferview-vec2",
         "target" : 34962
      },
      {
         "buffer" : 0,
         "byteLength" : 63792,
         "byteOffset" : 26592,
         "byteStride" : 12,
         "name" : "buffer-0-bufferview-vec3",
         "target" : 34962
      },
      {
         "buffer" : 0,
         "byteLength" : 1,
         "byteOffset" : 0,
         "name" : "buffer-0-bufferview-vec4"
      }
   ],
   "buffers" : [
      {
         "byteLength" : 90384,
         "name" : "buffer-0",
         "uri" : "src\\components\\objects\\Flower\\Avocado.bin"
      }
   ],
   "accessors" : [
      {
         "bufferView" : 0,
         "byteOffset" : 0,
         "componentType" : 5123,
         "count" : 1584,
         "max" : [ 1583 ],
         "min" : [ 0 ],
         "name" : "buffer-0-accessor-indices-buffer-0-mesh-0",
         "type" : "SCALAR"
      },
      {
         "bufferView" : 2,
         "byteOffset" : 0,
         "componentType" : 5126,
         "count" : 1584,
         "max" : [ 3881381.5, 1312711.5, 741568.625 ],
         "min" : [ 0, -15216.6875, -471197 ],
         "name" : "buffer-0-accessor-position-buffer-0-mesh-0",
         "type" : "VEC3"
      },
      {
         "bufferView" : 2,
         "byteOffset" : 19008,
         "componentType" : 5126,
         "count" : 1584,
         "max" : [ 0.9977999925613403, 0.9933000206947327, 0.996399998664856 ],
         "min" : [ -0.9966999888420105, -0.9933000206947327, -0.996999979019165 ],
         "name" : "buffer-0-accessor-normal-buffer-0-mesh-0",
         "type" : "VEC3"
      },
      {
         "bufferView" : 1,
         "byteOffset" : 0,
         "componentType" : 5126,
         "count" : 1584,
         "max" : [ 1, 0 ],
         "min" : [ 0, -1 ],
         "name" : "buffer-0-accessor-texcoord-buffer-0-mesh-0",
         "type" : "VEC2"
      },
      {
         "bufferView" : 3,
         "byteOffset" : 0,
         "componentType" : 5126,
         "count" : 0,
         "max" : [ 0, 0, 0, 0 ],
         "min" : [ 0, 0, 0, 0 ],
         "name" : "buffer-0-accessor-color-buffer-0-mesh-0",
         "type" : "VEC4"
      },
      {
         "bufferView" : 0,
         "byteOffset" : 3168,
         "componentType" : 5123,
         "count" : 930,
         "max" : [ 929 ],
         "min" : [ 0 ],
         "name" : "buffer-0-accessor-indices-buffer-0-mesh-0",
         "type" : "SCALAR"
      },
      {
         "bufferView" : 2,
         "byteOffset" : 38016,
         "componentType" : 5126,
         "count" : 930,
         "max" : [ 3432501, 582420.25, 451372.625 ],
         "min" : [ 0, 0, -26572 ],
         "name" : "buffer-0-accessor-position-buffer-0-mesh-0",
         "type" : "VEC3"
      },
      {
         "bufferView" : 2,
         "byteOffset" : 49176,
         "componentType" : 5126,
         "count" : 930,
         "max" : [ 0.9872000217437744, 0.9939000010490417, 0.9965000152587891 ],
         "min" : [ -0.9635000228881836, -0.9039999842643738, -0.9768000245094299 ],
         "name" : "buffer-0-accessor-normal-buffer-0-mesh-0",
         "type" : "VEC3"
      },
      {
         "bufferView" : 1,
         "byteOffset" : 12672,
         "componentType" : 5126,
         "count" : 930,
         "max" : [ 0.75, 0 ],
         "min" : [ 0, -1 ],
         "name" : "buffer-0-accessor-texcoord-buffer-0-mesh-0",
         "type" : "VEC2"
      },
      {
         "bufferView" : 3,
         "byteOffset" : 0,
         "componentType" : 5126,
         "count" : 0,
         "max" : [ 0, 0, 0, 0 ],
         "min" : [ 0, 0, 0, 0 ],
         "name" : "buffer-0-accessor-color-buffer-0-mesh-0",
         "type" : "VEC4"
      },
      {
         "bufferView" : 0,
         "byteOffset" : 5028,
         "componentType" : 5123,
         "count" : 144,
         "max" : [ 143 ],
         "min" : [ 0 ],
         "name" : "buffer-0-accessor-indices-buffer-0-mesh-0",
         "type" : "SCALAR"
      },
      {
         "bufferView" : 2,
         "byteOffset" : 60336,
         "componentType" : 5126,
         "count" : 144,
         "max" : [ 3881381.5, 584286.375, 741568.625 ],
         "min" : [ 0, 0, -467610.625 ],
         "name" : "buffer-0-accessor-position-buffer-0-mesh-0",
         "type" : "VEC3"
      },
      {
         "bufferView" : 2,
         "byteOffset" : 62064,
         "componentType" : 5126,
         "count" : 144,
         "max" : [ 0.3616000115871429, 0.9118999838829041, 0.196600005030632 ],
         "min" : [ 0, 0, 0 ],
         "name" : "buffer-0-accessor-normal-buffer-0-mesh-0",
         "type" : "VEC3"
      },
      {
         "bufferView" : 1,
         "byteOffset" : 20112,
         "componentType" : 5126,
         "count" : 144,
         "max" : [ 0.75, 0 ],
         "min" : [ 0, -1 ],
         "name" : "buffer-0-accessor-texcoord-buffer-0-mesh-0",
         "type" : "VEC2"
      },
      {
         "bufferView" : 3,
         "byteOffset" : 0,
         "componentType" : 5126,
         "count" : 0,
         "max" : [ 0, 0, 0, 0 ],
         "min" : [ 0, 0, 0, 0 ],
         "name" : "buffer-0-accessor-color-buffer-0-mesh-0",
         "type" : "VEC4"
      }
   ],
   "extensions" : {
      "KHR_lights_punctual" : {
         "lights" : [
            {
               "color" : [ 1, 0.9333333333333333, 0.8666666666666667 ],
               "intensity" : 0.25,
               "name" : "headLight",
               "type" : "directional"
            },
            {
               "color" : [ 1, 0.9333333333333333, 0.8666666666666667 ],
               "intensity" : 0.324999988079071,
               "name" : "keyLight",
               "type" : "directional"
            }
         ]
      }
   },
   "materials" : [
      {
         "alphaMode" : "OPAQUE",
         "doubleSided" : true,
         "name" : "_crayfishdiffuse",
         "pbrMetallicRoughness" : {
            "baseColorFactor" : [ 0.1176, 1, 0, 1 ],
            "metallicFactor" : 0,
            "roughnessFactor" : 0.9124375732201923
         }
      },
      {
         "alphaMode" : "OPAQUE",
         "doubleSided" : true,
         "name" : "03___Default",
         "pbrMetallicRoughness" : {
            "baseColorFactor" : [ 0.9529, 0.4471, 0, 1 ],
            "metallicFactor" : 0,
            "roughnessFactor" : 0.9699476628648295
         }
      },
      {
         "alphaMode" : "OPAQUE",
         "doubleSided" : true,
         "name" : "02___Default",
         "pbrMetallicRoughness" : {
            "baseColorFactor" : [ 0.698, 0.8667, 0.0275, 1 ],
            "metallicFactor" : 0,
            "roughnessFactor" : 0.9699476628648295
         }
      }
   ],
   "meshes" : [
      {
         "name" : "buffer-0-mesh-0",
         "primitives" : [
            {
               "attributes" : {
                  "NORMAL" : 2,
                  "POSITION" : 1,
                  "TEXCOORD_0" : 3
               },
               "indices" : 0,
               "material" : 0,
               "mode" : 4
            },
            {
               "attributes" : {
                  "NORMAL" : 7,
                  "POSITION" : 6,
                  "TEXCOORD_0" : 8
               },
               "indices" : 5,
               "material" : 1,
               "mode" : 4
            },
            {
               "attributes" : {
                  "NORMAL" : 12,
                  "POSITION" : 11,
                  "TEXCOORD_0" : 13
               },
               "indices" : 10,
               "material" : 2,
               "mode" : 4
            }
         ]
      }
   ],
   "nodes" : [
      {
         "mesh" : 0,
         "name" : "node-0"
      },
      {
         "children" : [ 2 ]
      },
      {
         "children" : [ 3 ],
         "extras" : {
            "isTransformNode" : 1
         },
         "translation" : [ 2542429.673881711, 479509.1545016191, 158100.0208466361 ]
      },
      {
         "children" : [ 0 ],
         "translation" : [ -2542429.673881711, -479509.1545016191, -158100.0208466361 ]
      },
      {
         "children" : [ 5 ],
         "rotation" : [
            -0.221924054279278,
            -0.2518950318538155,
            -0.05946428056213488,
            0.9400864887853889
         ],
         "translation" : [ 977639.4576151769, 2044421.913288675, 2868643.519902344 ]
      },
      {
         "extensions" : {
            "KHR_lights_punctual" : {
               "light" : 0
            }
         },
         "extras" : {
            "isHeadLight" : 1
         },
         "name" : "headLightNode",
         "translation" : [ -1301856.531098223, 650928.2655491116, 650928.2655491116 ]
      },
      {
         "extensions" : {
            "KHR_lights_punctual" : {
               "light" : 1
            }
         },
         "extras" : {
            "isKeyLight" : 1
         },
         "name" : "keyLightNode",
         "rotation" : [ -0.7505326882858236, -0.3752663441429118, 0, 0.5439447166468927 ],
         "scale" : [ 0, 0, 1314875.096409206 ],
         "translation" : [ 1496312.449772134, 3133410.041083084, -1166840.757000463 ]
      }
   ],
   "scene" : 0,
    "scenes": [
    {
      "nodes": [
        0
      ]
    }
  ]
}
